HIERARCHY
ROOT root
{
	OFFSET	0	13.1	24.9
	CHANNELS 6  Xposition Yposition Zposition Xrotation Yrotation Zrotation
	JOINT spine_1
	{
		OFFSET	0	9.99999	0
		CHANNELS 3  Xrotation Yrotation Zrotation
		JOINT spine_2
		{
			OFFSET	0	112	-10
			CHANNELS 3  Xrotation Yrotation Zrotation
			JOINT spine_3
			{
				OFFSET	0	206.5	19.3
				CHANNELS 3  Xrotation Yrotation Zrotation
				JOINT spine_4
				{
					OFFSET	0	110.4	14.6
					CHANNELS 3  Xrotation Yrotation Zrotation
					JOINT neck_1
					{
						OFFSET	0	71.8	-50.3
						CHANNELS 3  Xrotation Yrotation Zrotation
						JOINT neck_2
						{
							OFFSET	0	86.2	-25.8
							CHANNELS 3  Xrotation Yrotation Zrotation
							JOINT head_ee
							{
								OFFSET	0	179.8	-8.7
								CHANNELS 3  Xrotation Yrotation Zrotation
								End Site
								{
									OFFSET	1	0	0
								}
							}
						}
					}
					JOINT left_clavicle
					{
						OFFSET	-43.2	22.4	-70.8
						CHANNELS 3  Xrotation Yrotation Zrotation
						JOINT left_shoulder
						{
							OFFSET	-93.9	-5.79999	48.7
							CHANNELS 3  Xrotation Yrotation Zrotation
							JOINT left_elbow
							{
								OFFSET	-291.4	-30.8	15.2
								CHANNELS 3  Xrotation Yrotation Zrotation
								JOINT left_lowarm_twist
								{
									OFFSET	-110.7	-3.89999	13.6
									CHANNELS 3  Xrotation Yrotation Zrotation
									JOINT left_hand
									{
										OFFSET	-110.7	-3.89999	13.6
										CHANNELS 3  Xrotation Yrotation Zrotation
										JOINT left_ee
										{
											OFFSET	-80.8	-5.10001	12.1
											CHANNELS 3  Xrotation Yrotation Zrotation
											End Site
											{
												OFFSET	1	0	0
											}
										}
									}
								}
							}
						}
					}
					JOINT right_clavicle
					{
						OFFSET	43.2	22.4	-70.8
						CHANNELS 3  Xrotation Yrotation Zrotation
						JOINT right_shoulder
						{
							OFFSET	93.9	-5.79999	48.7
							CHANNELS 3  Xrotation Yrotation Zrotation
							JOINT right_elbow
							{
								OFFSET	291.4	-30.8	15.2
								CHANNELS 3  Xrotation Yrotation Zrotation
								JOINT right_lowarm_twist
								{
									OFFSET	110.7	-3.89999	13.6
									CHANNELS 3  Xrotation Yrotation Zrotation
									JOINT right_hand
									{
										OFFSET	110.7	-3.89999	13.6
										CHANNELS 3  Xrotation Yrotation Zrotation
										JOINT right_ee
										{
											OFFSET	80.8	-5.10001	12.1
											CHANNELS 3  Xrotation Yrotation Zrotation
											End Site
											{
												OFFSET	1	0	0
											}
										}
									}
								}
							}
						}
					}
				}
			}
		}
	}
	JOINT left_hip
	{
		OFFSET	-82.8	-127.5	0.300001
		CHANNELS 3  Xrotation Yrotation Zrotation
		JOINT left_knee
		{
			OFFSET	-28.2	-396.7	2.2
			CHANNELS 3  Xrotation Yrotation Zrotation
			JOINT left_ankle
			{
				OFFSET	-11.7	-411.3	35.4
				CHANNELS 3  Xrotation Yrotation Zrotation
				JOINT left_toes
				{
					OFFSET	0	-60	-88.6
					CHANNELS 3  Xrotation Yrotation Zrotation
					JOINT left_foot_ee
					{
						OFFSET	-22.5	-16.5	-42.2
						CHANNELS 3  Xrotation Yrotation Zrotation
						End Site
						{
							OFFSET	1	0	0
						}
					}
				}
			}
		}
	}
	JOINT right_hip
	{
		OFFSET	82.8	-127.5	0.300001
		CHANNELS 3  Xrotation Yrotation Zrotation
		JOINT right_knee
		{
			OFFSET	28.2	-396.7	2.2
			CHANNELS 3  Xrotation Yrotation Zrotation
			JOINT right_ankle
			{
				OFFSET	11.7	-411.3	35.4
				CHANNELS 3  Xrotation Yrotation Zrotation
				JOINT right_toes
				{
					OFFSET	0	-60	-88.6
					CHANNELS 3  Xrotation Yrotation Zrotation
					JOINT right_foot_ee
					{
						OFFSET	22.5	-16.5	-42.2
						CHANNELS 3  Xrotation Yrotation Zrotation
						End Site
						{
							OFFSET	1	0	0
						}
					}
				}
			}
		}
	}
}
MOTION
Frames: 10
Frame Time: 0.02
3498.05535854 699.988 -1503.20114606 107.244771448 77.9431089382 -101.972169628 -3.25301 -0.0962147 -1.08861 -3.25235 -0.026753 -1.09252 -3.251 0.26406 -1.06047 -3.25255 0.0932749 -1.08886 -23.2265 7.84704 4.48605 -23.4787 13.1219 7.90683 -0.0 0.0 -0.0 6.69242 22.0775 12.1226 -30.5694 -25.0012 55.0573 1.45328 -35.7483 0.468695 -83.216 -8.2282 5.22491 -3.66141 22.3983 -12.3965 -0.0 0.0 -0.0 9.96114 4.83117 -19.7355 -5.50262 28.0874 -58.7934 0.199342 5.63972 -0.00981875 -15.0447 0.765868 -1.75913 1.07705 -5.46556 -9.38757 0.0 0.0 0.0 8.49479 3.11772 -18.7515 -58.9528 -2.08798 8.40907 38.1094 21.474 -4.88452 1.89125 -0.0 -0.0 -0.0 0.0 -0.0 -4.68706 12.9663 -14.7831 -42.7858 0.65344 -6.38379 26.1228 -11.7011 3.47374 3.17066 -0.0 -0.0 0.0 0.0 0.0 
3490.97900396 703.252 -1504.55062957 117.315722045 76.8878972111 -111.866822479 -3.39737 -0.169608 -1.02417 -3.39679 -0.104097 -1.03288 -3.39407 0.176205 -1.02305 -3.39553 0.0124308 -1.03804 -22.8464 7.69365 2.44335 -23.1644 13.728 5.90493 -0.0 0.0 -0.0 6.72763 21.7967 12.1975 -31.9884 -26.6881 54.2675 1.32743 -33.3261 0.397331 -82.5269 -8.14144 5.23859 -3.59284 21.5416 -12.5001 -0.0 0.0 -0.0 10.224 5.03403 -20.3012 -3.8129 28.9875 -58.954 0.200893 5.68329 -0.00997165 -14.698 0.743098 -1.72104 1.46093 -6.66176 -12.4059 0.0 0.0 0.0 8.45497 -0.711572 -16.9588 -57.1506 -1.90028 8.20409 38.1994 25.3546 -5.00271 1.74405 -0.0 -0.0 -0.0 0.0 -0.0 -6.23632 11.3801 -15.158 -40.2386 0.482019 -6.03165 22.0598 -12.0011 2.9944 5.17205 -0.0 -0.0 0.0 0.0 0.0 
3484.03501124 707.582 -1498.12192826 134.010583697 73.59487332 -128.761289259 -3.84928 -0.0661198 -0.993905 -3.84873 -0.00274423 -0.996097 -3.84792 0.271624 -0.958355 -3.84918 0.116869 -0.989222 -21.6374 6.58756 0.206087 -21.899 12.6106 3.16409 -0.0 0.0 -0.0 7.66837 21.7881 13.5961 -33.0293 -27.2255 52.6319 1.15537 -29.7831 0.307247 -81.6973 -8.03674 5.25367 -2.67001 18.1905 -8.78515 -0.0 0.0 -0.0 11.2674 7.61469 -22.6178 -1.04517 27.4471 -56.7318 0.234126 6.61572 -0.0135318 -12.6507 0.613389 -1.49341 1.34442 -6.19002 -11.4483 0.0 0.0 0.0 13.4405 -0.196768 -17.1464 -56.4062 -1.82467 8.11774 38.8649 25.4282 -5.07126 -3.62605 0.0 0.0 -0.0 0.0 -0.0 -6.99511 11.5236 -16.1349 -38.5265 0.375694 -5.79089 21.3225 -16.5385 2.93368 6.14566 -0.0 -0.0 0.0 0.0 0.0 
3483.83476355 707.582 -1497.33405797 135.203516515 73.2445182746 -130.005965414 -3.84928 -0.0661198 -0.993905 -3.84873 -0.00274423 -0.996097 -3.84792 0.271624 -0.958355 -3.84918 0.116869 -0.989222 -21.6374 6.58756 0.206087 -21.899 12.6106 3.16409 -0.0 0.0 -0.0 7.66837 21.7881 13.5961 -33.0293 -27.2255 52.6319 1.15537 -29.7831 0.307247 -81.6973 -8.03674 5.25367 -2.67001 18.1905 -8.78515 -0.0 0.0 -0.0 11.2674 7.61469 -22.6178 -1.04517 27.4471 -56.7318 0.234126 6.61572 -0.0135318 -12.6507 0.613389 -1.49341 1.34442 -6.19002 -11.4483 0.0 0.0 0.0 13.4405 -0.196768 -17.1464 -56.4062 -1.82467 8.11774 38.8649 25.4282 -5.07126 -3.62605 0.0 0.0 -0.0 0.0 -0.0 -6.99511 11.5236 -16.1349 -38.5265 0.375694 -5.79089 21.3225 -16.5385 2.93368 6.14566 -0.0 -0.0 0.0 0.0 0.0 
3482.72879407 715.306 -1498.74740579 147.272079773 69.3251420645 -141.852014057 -3.99729 -0.0881026 -0.770401 -3.99695 -0.0389029 -0.774445 -3.99593 0.177774 -0.75477 -3.99672 0.0563449 -0.773372 -23.7752 5.21416 -3.27605 -24.0 11.5054 -0.492998 -0.0 0.0 -0.0 8.09346 20.7951 14.3525 -33.8841 -29.0623 51.044 1.01691 -26.736 0.241669 -80.6623 -7.9058 5.27033 -0.902461 14.391 0.275571 -0.0 0.0 -0.0 11.8582 12.4236 -23.9394 2.1802 23.1002 -55.0551 0.422981 11.8343 -0.0438391 -6.95973 0.296576 -0.838283 1.49344 -1.22617 -10.518 0.0 0.0 0.0 21.1477 0.673408 -17.6339 -48.3752 -1.08362 7.12819 35.1218 22.1806 -4.60113 -10.0231 0.0 0.0 -0.0 0.0 -0.0 -6.16236 12.9233 -17.9899 -34.3292 0.145949 -5.18842 19.7524 -18.7653 2.75628 5.36134 -0.0 -0.0 0.0 0.0 0.0 
3476.52022543 714.902 -1496.34048146 151.641518588 67.2050295515 -145.715761238 -4.06259 -0.0249213 -0.823108 -4.06221 0.027504 -0.823026 -4.0621 0.255974 -0.782694 -4.06293 0.129154 -0.813295 -22.1379 3.97382 -3.37938 -22.2539 9.25829 -1.31777 -0.0 0.0 -0.0 7.8696 20.3691 14.0567 -34.9131 -31.9733 50.4418 0.869068 -23.2922 0.179126 -79.3732 -7.74226 5.28774 0.181606 9.60713 5.15286 -0.0 0.0 -0.0 11.8883 14.0364 -23.9728 3.41903 20.8792 -54.6641 0.520323 14.4537 -0.0659803 -3.85766 0.151792 -0.46906 1.01268 1.3953 -6.20882 0.0 0.0 0.0 23.1883 0.831889 -17.959 -45.6695 -0.866267 6.77299 29.7166 23.0507 -4.03037 -13.1129 0.0 0.0 -0.0 0.0 -0.0 -7.95341 9.3675 -18.3065 -32.0189 0.0385432 -4.85023 19.6124 -19.1085 2.74179 6.7228 -0.0 -0.0 0.0 0.0 0.0 
3467.25827444 717.747 -1491.28042388 154.494967842 64.8222995606 -147.835708636 -4.16987 0.00995528 -1.08316 -4.16922 0.0788551 -1.08033 -4.16986 0.378987 -1.01475 -4.17124 0.21398 -1.06186 -22.0037 3.35608 -4.9761 -22.0687 8.83022 -3.09381 -0.0 0.0 -0.0 8.46188 20.1983 14.9948 -35.3314 -31.2365 50.6394 0.752861 -20.4527 0.135821 -79.4905 -7.75716 5.28631 0.742458 7.67699 8.03787 -0.0 0.0 -0.0 12.3672 17.6589 -24.9244 4.44312 19.0219 -53.0048 0.545368 15.1183 -0.0723722 -1.2655 0.0463043 -0.15497 1.13739 3.26143 -6.28083 0.0 0.0 0.0 25.3291 1.44248 -18.3032 -43.9685 -0.738346 6.54469 28.936 23.4172 -3.94812 -13.3505 0.0 0.0 -0.0 0.0 -0.0 -8.45199 10.8336 -19.6865 -30.9084 -0.00819986 -4.68624 23.245 -18.7101 3.1929 8.34565 -0.0 -0.0 0.0 0.0 0.0 
3462.296687 720.128 -1485.61858238 155.907085321 63.4556969665 -148.68160845 -4.22852 -0.147339 -1.46108 -4.22734 -0.0540784 -1.46749 -4.22412 0.361451 -1.42332 -4.22692 0.132154 -1.46253 -20.2099 3.34811 -5.70403 -20.2502 9.33277 -3.88975 -0.0 0.0 -0.0 7.83361 19.9394 14.0472 -35.5208 -32.4744 52.9634 0.797714 -21.5621 0.151901 -78.2503 -7.59946 5.29988 1.67265 1.75586 11.9444 -0.0 0.0 -0.0 12.1756 18.074 -24.4604 5.1491 17.0471 -51.6309 0.710216 19.3829 -0.121292 0.246936 -0.00863529 0.0303548 0.57601 10.0096 0.364398 0.0 0.0 0.0 26.6961 1.64146 -18.1319 -35.331 -0.19675 5.33368 20.7751 25.6814 -2.98197 -14.345 0.0 0.0 -0.0 0.0 -0.0 -11.2073 9.74328 -19.7741 -23.6275 -0.23496 -3.59259 14.9312 -19.6012 2.13055 9.15936 -0.0 -0.0 0.0 0.0 0.0 
3450.56898557 722.122 -1477.71770242 157.726394271 62.0981890944 -150.072500865 -4.20846 -0.0459277 -1.47184 -4.20726 0.0478122 -1.47178 -4.20681 0.460031 -1.39887 -4.20947 0.233357 -1.45395 -19.0258 2.42994 -5.9936 -19.0091 7.82805 -4.61322 -0.0 0.0 -0.0 7.44424 19.8085 13.4568 -36.1345 -32.8852 53.9185 0.751425 -20.417 0.135319 -77.3126 -7.48002 5.30785 2.22249 -0.327297 14.8918 -0.0 0.0 -0.0 12.104 19.0807 -24.235 6.27874 16.7983 -51.0943 0.787414 21.3088 -0.148136 0.25037 -0.00875424 0.0307773 0.556349 11.0327 0.935207 0.0 0.0 0.0 27.5344 1.33524 -17.5177 -29.4512 0.0646968 4.46974 15.5515 27.1567 -2.29846 -16.461 0.0 0.0 -0.0 0.0 -0.0 -13.6265 10.5163 -20.1925 -18.7359 -0.308539 -2.84584 12.6477 -18.2359 1.81111 11.3098 -0.0 -0.0 0.0 0.0 0.0 
3450.56642364 722.122 -1477.60954211 157.762148541 62.051880229 -150.112966934 -4.20846 -0.0459277 -1.47184 -4.20726 0.0478122 -1.47178 -4.20681 0.460031 -1.39887 -4.20947 0.233357 -1.45395 -19.0258 2.42994 -5.9936 -19.0091 7.82805 -4.61322 -0.0 0.0 -0.0 7.44424 19.8085 13.4568 -36.1345 -32.8852 53.9185 0.751425 -20.417 0.135319 -77.3126 -7.48002 5.30785 2.22249 -0.327297 14.8918 -0.0 0.0 -0.0 12.104 19.0807 -24.235 6.27874 16.7983 -51.0943 0.787414 21.3088 -0.148136 0.25037 -0.00875424 0.0307773 0.556349 11.0327 0.935207 0.0 0.0 0.0 27.5344 1.33524 -17.5177 -29.4512 0.0646968 4.46974 15.5515 27.1567 -2.29846 -16.461 0.0 0.0 -0.0 0.0 -0.0 -13.6265 10.5163 -20.1925 -18.7359 -0.308539 -2.84584 12.6477 -18.2359 1.81111 11.3098 -0.0 -0.0 0.0 0.0 0.0 
